<?xml version="1.0" encoding="UTF-8"?>
<svg id="Layer_2" xmlns="http://www.w3.org/2000/svg" viewBox="0 0 500 154.67">
  <defs>
    <style>
      .cls-1 {
        fill: #eca563;
      }
    </style>
  </defs>
  <path class="cls-1" d="M67.26,21.01c-8.57,3.26-15.21,8.3-19.92,15.12-4.71,6.82-7.06,15.19-7.06,25.08,0,4.47.42,7.58,1.27,9.33.84,1.75,1.27,2.75,1.27,2.99-6.52,0-11.38-1.36-14.58-4.08-3.2-2.72-4.8-7.21-4.8-13.49,0-7.73,3.17-15.24,9.51-22.55,6.34-7.3,14.46-13.22,24.36-17.75,9.9-4.53,19.8-6.79,29.7-6.79,1.69,0,4.1.12,7.24.36l1.63,111.39L133.91,9.78h12.68l-50.35,134.93h-26.08l-2.9-123.7Z"/>
  <path class="cls-1" d="M138.8,138.82c-4.95-4.65-7.43-11.92-7.43-21.82,0-8.33,1.63-17.51,4.89-27.53,3.26-10.02,8.57-18.68,15.94-25.99,7.36-7.3,16.72-10.96,28.07-10.96,13.28,0,19.92,5.8,19.92,17.39,0,6.76-1.93,12.98-5.8,18.65-3.87,5.68-9,10.23-15.39,13.67-6.4,3.44-13.22,5.41-20.47,5.89-.24,3.62-.36,6.04-.36,7.24,0,5.92,1.02,9.93,3.08,12.04,2.05,2.11,5.37,3.17,9.96,3.17,6.52,0,12.1-1.51,16.75-4.53,4.65-3.02,9.75-7.61,15.3-13.77h6.16c-13.4,22.34-30.01,33.51-49.81,33.51-8.94,0-15.88-2.32-20.83-6.97ZM172.76,94.72c4.04-2.9,7.3-6.58,9.78-11.05,2.47-4.47,3.71-9.17,3.71-14.13s-1.51-7.43-4.53-7.43c-4.35,0-8.6,3.8-12.77,11.41-4.17,7.61-7.15,16.24-8.97,25.9,4.47-.24,8.72-1.81,12.77-4.71Z"/>
  <path class="cls-1" d="M206.62,140.18c-2.96-3.74-4.44-8.69-4.44-14.85,0-3.14.36-6.34,1.09-9.6l10.96-51.39c.32-1.51-.83-2.94-2.38-2.94h0c-1.54,0-2.69-1.41-2.39-2.91l.48-2.38c.23-1.14,1.23-1.96,2.39-1.96h2.02c1.14,0,2.14-.8,2.38-1.92l4.65-21.41c.22-1,1.04-1.76,2.05-1.89l21.61-2.92c1.69-.23,3.08,1.3,2.7,2.96-.56,2.41-.89,3.95-.99,4.62-.01.07-.02.12-.04.19-.77,3.08-2.01,8.89-3.74,17.45-.3,1.51.85,2.92,2.38,2.92h4.93c1.54,0,2.69,1.41,2.39,2.91l-.48,2.38c-.23,1.14-1.23,1.96-2.39,1.96h-6.9c-1.15,0-2.14.8-2.38,1.93l-11.18,52.41c-.61,2.66-.91,4.77-.91,6.34,0,4.35,2.11,6.52,6.34,6.52.31,0,.6,0,.89-.01,1.77-.05,3.02,1.74,2.33,3.37-2.07,4.88-4.41,8.29-7.02,10.22-3.26,2.42-6.82,3.62-10.69,3.62-6.16,0-10.72-1.87-13.67-5.61Z"/>
  <path class="cls-1" d="M294.91,29.52l26.8-3.62-12.86,60.49c5.8-.48,11.14-3.02,16.03-7.61,4.89-4.59,8.72-10.26,11.5-17.02,2.78-6.76,4.17-13.4,4.17-19.92,0-7.24-1.87-13.16-5.61-17.75-3.74-4.59-9.36-6.88-16.84-6.88-14.73,0-26.23,3.87-34.5,11.59-8.27,7.73-12.41,18.54-12.41,32.42,0,4.47.42,7.58,1.27,9.33.84,1.75,1.27,2.75,1.27,2.99-6.52,0-11.38-1.36-14.58-4.08-3.2-2.72-4.8-7.21-4.8-13.49,0-7.73,3.17-15.24,9.51-22.55,6.34-7.3,14.46-13.22,24.36-17.75,9.9-4.53,19.8-6.79,29.7-6.79s17.51,1.63,23.91,4.89c6.4,3.26,11.14,7.58,14.22,12.95,3.08,5.37,4.62,11.32,4.62,17.84,0,7.85-2.14,15.52-6.43,23-4.29,7.49-10.41,13.62-18.38,18.38-7.97,4.77-17.15,7.15-27.53,7.15h-.91l-11.05,51.62h-26.08l24.63-115.19Z"/>
  <path class="cls-1" d="M362.11,138.82c-4.95-4.65-7.43-11.92-7.43-21.82,0-8.33,1.63-17.51,4.89-27.53,3.26-10.02,8.57-18.68,15.94-25.99,7.36-7.3,16.72-10.96,28.07-10.96,13.28,0,19.92,5.8,19.92,17.39,0,6.76-1.93,12.98-5.8,18.65-3.87,5.68-9,10.23-15.39,13.67-6.4,3.44-13.22,5.41-20.47,5.89-.24,3.62-.36,6.04-.36,7.24,0,5.92,1.02,9.93,3.08,12.04,2.05,2.11,5.37,3.17,9.96,3.17,6.52,0,12.1-1.51,16.75-4.53,4.65-3.02,9.75-7.61,15.3-13.77h6.16c-13.4,22.34-30.01,33.51-49.81,33.51-8.94,0-15.88-2.32-20.83-6.97ZM396.07,94.72c4.04-2.9,7.3-6.58,9.78-11.05,2.47-4.47,3.71-9.17,3.71-14.13s-1.51-7.43-4.53-7.43c-4.35,0-8.6,3.8-12.77,11.41-4.17,7.61-7.15,16.24-8.97,25.9,4.47-.24,8.72-1.81,12.77-4.71Z"/>
  <path class="cls-1" d="M429.93,140.18c-2.96-3.74-4.44-8.69-4.44-14.85,0-3.14.36-6.34,1.09-9.6l11.59-54.33h-5.98l1.45-7.24h5.98l5.43-24.99,26.8-3.62c-1.09,4.59-1.69,7.31-1.81,8.15-.85,3.38-2.29,10.2-4.35,20.47h10.87l-1.45,7.24h-10.87l-11.59,54.33c-.61,2.66-.91,4.77-.91,6.34,0,4.35,2.11,6.52,6.34,6.52,2.17,0,3.74-.18,4.71-.54-2.42,7-5.25,11.71-8.51,14.13-3.26,2.42-6.82,3.62-10.69,3.62-6.16,0-10.72-1.87-13.67-5.61Z"/>
</svg>