<?xml version="1.0" encoding="UTF-8"?>
<svg id="Layer_2" opacity="0.2"  xmlns="http://www.w3.org/2000/svg" xmlns:xlink="http://www.w3.org/1999/xlink" viewBox="0 0 1920 972">
  <defs>
    <style>
      .cls-1 {
        fill: #9fa4d7;
      }

      .cls-2 {
        fill: #a9afdb;
      }

      .cls-3 {
        fill: #838ac6;
      }

      .cls-4 {
        fill: none;
      }

      .cls-5 {
        fill: #848cc7;
      }

      .cls-6 {
        fill: #bbbfe0;
      }

      .cls-7 {
        fill: #afb4dd;
      }

      .cls-8 {
        clip-path: url(#clippath);
      }
    </style>
    <clipPath id="clippath">
      <rect class="cls-4" x="-.07" width="1920.07" height="972"/>
    </clipPath>
  </defs>
  <g class="cls-8">
    <g>
      <g>
        <path class="cls-3" d="M276.36,242.06c-3.59,6.52-9.76,11.74-18.88,15.96-5.96,2.75-12.33,4.77-18.95,5.99-15.16,2.79-29.19,9.77-40.57,20.17-4.97,4.54-10.43,8.41-16.21,11.49-.57.3-1.14.59-1.7.87-8.18,4.07-15.54,5.55-22.43,4.55-12.61-1.85-24.09-13.24-26.71-26.52-2.34-11.86,1.81-22.81,5.82-33.39.54-1.43,1.1-2.91,1.63-4.35,3.99-10.9,6.87-22.38,8.57-34.12.22-1.49.42-3.01.61-4.49.75-5.67,1.52-11.53,3.3-17.06l.07-.21c2.2-6.72,6.95-12.18,13.38-15.38,3.21-1.6,6.62-2.52,10.07-2.75,3.44-.23,6.92.22,10.26,1.37l.21.07c5.48,1.92,10.62,4.84,15.6,7.67,1.29.73,2.63,1.5,3.95,2.22,10.39,5.74,21.28,10.37,32.38,13.76,1.46.45,2.98.89,4.45,1.32,10.86,3.19,22.09,6.49,30.13,15.52,9,10.1,11.16,26.13,5.02,37.3Z"/>
        <path class="cls-3" d="M266.69,131.98c.06,10.27-2.67,18.73-7.91,24.47-2.08,2.28-4.5,4.11-7.22,5.46-3.66,1.82-7.84,2.77-12.42,2.8-7.86.05-13.91-2.73-17.97-8.25-4.02-5.46-6-13.36-6.07-24.16-.07-10.93,1.86-20.44,5.57-27.49,4.21-8.01,10.45-12.28,18.03-12.32,7.59-.05,14.69,4.17,19.99,11.86,5.09,7.4,7.93,17.21,7.99,27.63Z"/>
        <path class="cls-3" d="M203.08,104.05c4.02,10.42,4.51,20.07,1.4,27.92-2.52,6.37-7.25,11.37-13.76,14.61-.96.48-1.95.91-2.98,1.31-7.95,3.07-15.14,2.58-21.37-1.45-6.18-4-11.24-11.28-15.47-22.24-2.15-5.56-3.65-10.95-4.48-16.02s-1-9.84-.47-14.14c1.19-9.74,5.87-16.45,13.51-19.4,7.67-2.96,16.49-1.42,24.82,4.36,8.04,5.57,14.71,14.47,18.8,25.06Z"/>
        <path class="cls-3" d="M107.1,186c8.56,6.56,13.66,12.92,15.59,19.42,1.95,6.57.51,13.07-4.27,19.31-2.78,3.63-6.07,6.39-9.72,8.21-2.72,1.35-5.63,2.18-8.71,2.46-7.74.71-16.14-2.22-24.28-8.47-8.27-6.34-14.38-14.53-17.21-23.05-2.94-8.87-2.01-17.07,2.61-23.1,4.61-6.01,11.77-8.41,20.71-6.93,7.86,1.3,16.6,5.5,25.28,12.16Z"/>
        <path class="cls-3" d="M139.39,129.9c1.41,2.28,2.64,4.48,3.7,6.6,3.57,7.18,5.11,13.5,4.69,19.16-.55,7.4-4.5,13.43-11.74,17.91-.94.58-1.89,1.11-2.85,1.59-6.52,3.24-13.36,3.99-19.95,2.16-8.13-2.26-15.53-8.47-21.41-17.97-5.97-9.65-9.04-20.34-8.63-30.11.43-10.13,4.51-18.09,11.51-22.42,6.97-4.31,15.14-3.99,23.62.93,7.5,4.35,14.78,12.01,21.06,22.15Z"/>
      </g>
      <g>
        <path class="cls-1" d="M664.96-13.77c6.57-1.23,13.71.08,21.83,4,5.3,2.56,10.33,5.83,14.95,9.73,10.58,8.92,23.41,14.67,37.11,16.64,5.98.86,11.77,2.44,17.21,4.69.53.22,1.06.45,1.57.68,7.49,3.36,12.71,7.61,15.94,12.96,5.91,9.8,4.55,24.26-3.17,33.64-6.89,8.38-16.85,11.75-26.47,15-1.3.44-2.65.89-3.94,1.35-9.83,3.45-19.44,7.99-28.55,13.51-1.15.7-2.33,1.43-3.46,2.14-4.36,2.71-8.86,5.52-13.71,7.44l-.18.07c-5.92,2.3-12.41,2.12-18.29-.51-2.94-1.32-5.52-3.16-7.65-5.41-2.12-2.25-3.79-4.92-4.9-7.9l-.07-.18c-1.8-4.9-2.7-10.13-3.57-15.19-.23-1.32-.46-2.68-.71-4-1.94-10.47-4.94-20.67-8.91-30.3-.52-1.27-1.08-2.58-1.62-3.84-3.98-9.35-8.09-19.02-6.42-29.74,1.87-12,11.76-22.63,23.01-24.74Z"/>
        <path class="cls-1" d="M594.13,55.69c7.08-5.89,14.51-8.82,21.48-8.46,2.76.14,5.41.78,7.9,1.89,3.34,1.5,6.39,3.86,9.02,7.02,4.52,5.42,6.04,11.2,4.52,17.17-1.5,5.9-5.85,11.78-13.3,17.98-7.54,6.28-15.23,10.36-22.24,11.81-7.96,1.65-14.47-.25-18.82-5.48-4.36-5.24-5.49-12.57-3.17-20.63,2.23-7.75,7.42-15.31,14.61-21.3Z"/>
        <path class="cls-1" d="M611.02,115.73c4.94-8.73,11.35-14.57,18.56-16.88,5.85-1.88,12.02-1.45,17.98,1.22.88.39,1.75.83,2.61,1.32,6.66,3.76,10.42,9.03,11.17,15.64.75,6.57-1.41,14.22-6.61,23.41-2.63,4.66-5.51,8.77-8.56,12.24-3.04,3.47-6.25,6.3-9.54,8.38-7.44,4.72-14.75,5.3-21.16,1.69-6.43-3.63-10.38-10.63-11.13-19.7-.72-8.75,1.65-18.45,6.66-27.32Z"/>
        <path class="cls-1" d="M722.57,135.57c-.33-9.68,1.17-16.84,4.58-21.88,3.45-5.1,8.77-7.81,15.82-8.04,4.1-.14,7.89.56,11.24,2.06,2.48,1.11,4.72,2.66,6.67,4.64,4.9,4.96,7.66,12.46,7.97,21.67.32,9.35-1.88,18.26-6.18,25.07-4.47,7.09-10.69,11.13-17.5,11.36-6.8.23-12.54-3.37-16.61-10.41-3.58-6.19-5.65-14.65-5.98-24.46Z"/>
        <path class="cls-1" d="M665.25,145.15c.78-2.28,1.6-4.38,2.47-6.33,2.95-6.57,6.45-11.24,10.61-14.18,5.44-3.84,11.87-4.53,19.11-2.07.94.32,1.85.68,2.72,1.07,5.96,2.67,10.38,6.99,12.87,12.61,3.07,6.92,2.98,15.6-.25,25.09-3.29,9.64-8.96,17.87-15.96,23.15-7.27,5.48-15.12,7.18-22.11,4.8-6.96-2.37-11.4-8.22-12.82-16.91-1.26-7.68-.1-17.1,3.35-27.23Z"/>
      </g>
      <g>
        <path class="cls-6" d="M2010.3,373.48c-1.06,8.9-5.6,17.5-13.88,26.33-5.41,5.76-11.61,10.88-18.45,15.23-15.66,9.96-28.17,24.06-36.18,40.8-3.5,7.31-7.84,14.08-12.91,20.14-.5.59-1,1.18-1.5,1.74-7.3,8.23-14.84,13.21-22.98,15.19-14.9,3.62-32.86-3.92-41.77-17.55-7.96-12.19-8.27-26.27-8.57-39.89-.04-1.84-.08-3.74-.14-5.59-.46-13.96-2.42-28.08-5.82-41.95-.43-1.76-.89-3.55-1.34-5.29-1.72-6.67-3.5-13.56-4.01-20.53l-.02-.26c-.57-8.5,2.27-16.73,8-23.19,2.87-3.23,6.26-5.8,10-7.61,3.74-1.81,7.82-2.88,12.07-3.1h.26c6.98-.35,14.04.6,20.87,1.51,1.78.24,3.61.48,5.41.7,14.18,1.72,28.43,1.97,42.34.76,1.84-.16,3.73-.35,5.56-.53,13.56-1.33,27.58-2.71,40.63,3.73,14.6,7.21,24.24,24.14,22.42,39.37Z"/>
        <path class="cls-6" d="M1949.86,254.99c4.7,11.43,5.46,22.11,2.21,30.88-1.29,3.48-3.17,6.61-5.59,9.35-3.26,3.68-7.5,6.63-12.6,8.72-8.75,3.6-16.75,3.23-23.78-1.1-6.95-4.29-12.72-12.21-17.66-24.23-5.01-12.17-7.15-23.65-6.18-33.19,1.09-10.85,6.13-18.41,14.56-21.88,8.46-3.48,18.28-1.98,27.66,4.23,9.02,5.96,16.61,15.64,21.38,27.24Z"/>
        <path class="cls-6" d="M1866.26,252.49c9.19,9.82,14.08,20.37,14.15,30.53.06,8.24-2.96,15.96-8.77,22.51-.85.96-1.77,1.9-2.74,2.81-7.49,7.01-15.73,9.71-24.5,8.02-8.7-1.68-17.63-7.52-27.3-17.85-4.9-5.24-9.01-10.57-12.22-15.86-3.22-5.29-5.55-10.53-6.9-15.57-3.06-11.41-.87-21,6.34-27.74,7.23-6.77,17.77-9.02,29.67-6.33,11.48,2.59,22.94,9.51,32.28,19.49Z"/>
        <path class="cls-6" d="M1796.1,387.25c12.52,3.47,21.08,8.25,26.16,14.64,5.14,6.46,6.47,14.36,3.94,23.48-1.47,5.3-3.89,9.87-7.15,13.55-2.42,2.73-5.3,4.97-8.61,6.67-8.31,4.28-19.01,4.8-30.92,1.5-12.09-3.35-22.6-9.73-29.6-17.97-7.28-8.57-9.95-18.15-7.51-26.96,2.44-8.79,9.35-14.7,19.99-17.08,9.36-2.1,21.01-1.35,33.7,2.17Z"/>
        <path class="cls-6" d="M1806.84,310.07c2.6,1.91,4.97,3.8,7.11,5.7,7.22,6.41,11.79,12.76,13.88,19.27,2.73,8.51,1.04,17.01-5.03,25.29-.79,1.07-1.61,2.09-2.46,3.05-5.81,6.55-13.11,10.48-21.3,11.4-10.09,1.15-21.15-2.45-32-10.4-11.02-8.08-19.27-18.63-23.21-29.72-4.09-11.5-3.12-22.23,2.73-30.21,5.83-7.96,15.09-11.28,26.79-9.61,10.33,1.48,21.92,6.74,33.49,15.22Z"/>
      </g>
      <g>
        <path class="cls-5" d="M676.44,497.98c-7.48.67-15.33-1.57-24-6.83-5.66-3.44-10.93-7.64-15.68-12.5-10.88-11.12-24.61-18.94-39.73-22.62-6.6-1.61-12.91-4-18.75-7.11-.57-.31-1.14-.62-1.69-.93-8.01-4.56-13.4-9.88-16.43-16.22-5.55-11.6-2.47-27.63,7.17-37.3,8.62-8.64,20.12-11.33,31.24-13.93,1.5-.35,3.06-.71,4.56-1.08,11.37-2.8,22.61-6.85,33.4-12.03,1.37-.65,2.76-1.35,4.1-2.02,5.17-2.57,10.51-5.22,16.15-6.84l.21-.06c6.87-1.94,14.12-1.03,20.41,2.55,3.15,1.79,5.84,4.13,7.97,6.88,2.13,2.75,3.72,5.92,4.63,9.37l.06.21c1.48,5.67,1.93,11.62,2.36,17.38.11,1.5.23,3.05.36,4.56,1.04,11.93,3.3,23.66,6.7,34.86.45,1.48.93,3,1.4,4.47,3.44,10.89,7,22.16,3.97,33.97-3.39,13.23-15.6,24.06-28.41,25.2Z"/>
        <path class="cls-5" d="M763.18,427.91c-8.56,5.83-17.19,8.31-24.95,7.15-3.08-.45-5.97-1.46-8.63-2.97-3.58-2.04-6.73-5.01-9.33-8.82-4.47-6.56-5.55-13.18-3.21-19.7,2.31-6.44,7.81-12.55,16.82-18.68,9.12-6.21,18.16-9.95,26.16-10.82,9.08-.98,16.16,1.84,20.47,8.16,4.31,6.33,4.78,14.65,1.32,23.42-3.33,8.43-9.95,16.33-18.64,22.25Z"/>
        <path class="cls-5" d="M750.76,358.9c-6.46,9.23-14.27,15.07-22.59,16.89-6.75,1.47-13.6.33-19.98-3.3-.94-.53-1.86-1.12-2.78-1.76-7.04-4.93-10.68-11.22-10.81-18.71-.13-7.43,3.12-15.76,9.92-25.48,3.45-4.93,7.12-9.22,10.9-12.77s7.68-6.37,11.58-8.35c8.83-4.48,17.08-4.34,23.85.4,6.8,4.76,10.47,13.01,10.33,23.24-.14,9.86-3.83,20.46-10.4,29.85Z"/>
        <path class="cls-5" d="M628.09,324.66c-.68,10.87-3.12,18.72-7.48,23.99-4.41,5.34-10.66,7.79-18.58,7.29-4.6-.29-8.77-1.48-12.35-3.52-2.66-1.51-5-3.49-6.96-5.91-4.95-6.08-7.22-14.76-6.58-25.1.66-10.5,4.07-20.23,9.62-27.39,5.77-7.46,13.16-11.3,20.81-10.82,7.63.48,13.67,5.13,17.47,13.44,3.34,7.32,4.74,17,4.05,28.02Z"/>
        <path class="cls-5" d="M693.25,320.13c-1.11,2.46-2.26,4.73-3.44,6.81-4,7.03-8.42,11.88-13.41,14.72-6.51,3.71-13.78,3.79-21.61.25-1.02-.46-1.99-.96-2.93-1.49-6.38-3.63-10.86-8.94-13.04-15.5-2.69-8.08-1.65-17.78,2.99-28.05,4.72-10.44,11.95-19.03,20.36-24.18,8.72-5.34,17.69-6.4,25.26-2.98,7.54,3.41,11.87,10.43,12.52,20.31.58,8.73-1.74,19.14-6.69,30.11Z"/>
      </g>
      <g>
        <path class="cls-1" d="M176.7,568.41c.39,5.71-1.44,11.66-5.59,18.19-2.71,4.26-6,8.21-9.78,11.76-8.65,8.11-14.83,18.46-17.87,29.93-1.33,5.01-3.25,9.78-5.71,14.18-.24.43-.49.86-.74,1.27-3.61,6.04-7.75,10.06-12.63,12.27-8.93,4.05-21.1,1.45-28.32-6.06-6.45-6.71-8.32-15.52-10.12-24.04-.24-1.15-.5-2.34-.75-3.49-1.95-8.71-4.86-17.34-8.64-25.65-.48-1.05-.98-2.12-1.47-3.16-1.87-3.98-3.81-8.1-4.96-12.42l-.04-.16c-1.37-5.27-.56-10.78,2.27-15.52,1.42-2.37,3.24-4.39,5.37-5.97,2.13-1.58,4.57-2.74,7.21-3.38l.16-.04c4.35-1.04,8.89-1.29,13.29-1.52,1.14-.06,2.33-.13,3.48-.2,9.11-.61,18.09-2.14,26.68-4.56,1.13-.32,2.3-.66,3.43-.99,8.36-2.45,17-4.98,25.96-2.49,10.03,2.79,18.09,12.28,18.76,22.06Z"/>
        <path class="cls-1" d="M124.66,501.17c4.31,6.62,6.06,13.24,5.06,19.13-.4,2.34-1.21,4.53-2.4,6.53-1.61,2.7-3.93,5.05-6.87,6.97-5.07,3.3-10.14,4.02-15.07,2.13-4.87-1.87-9.44-6.16-13.97-13.12-4.59-7.05-7.3-14-7.83-20.11-.6-6.94,1.66-12.29,6.55-15.48,4.9-3.19,11.25-3.41,17.88-.63,6.37,2.67,12.29,7.85,16.67,14.56Z"/>
        <path class="cls-1" d="M71.86,509.55c6.94,5.07,11.27,11.12,12.52,17.49,1.02,5.17.04,10.37-2.83,15.18-.42.71-.88,1.4-1.39,2.09-3.87,5.29-8.73,7.97-14.44,7.95-5.67-.02-11.97-2.63-19.27-7.96-3.7-2.71-6.91-5.57-9.56-8.51s-4.74-5.95-6.18-8.96c-3.28-6.8-3.04-13.09.68-18.18,3.74-5.11,10.09-7.77,17.88-7.5,7.52.26,15.54,3.25,22.59,8.4Z"/>
        <path class="cls-1" d="M43.81,602.52c8.27.69,14.22,2.68,18.17,6.08,4,3.44,5.77,8.25,5.27,14.28-.29,3.5-1.27,6.66-2.88,9.36-1.2,2-2.74,3.75-4.61,5.21-4.71,3.68-11.37,5.27-19.24,4.62-7.99-.67-15.35-3.43-20.73-7.77-5.59-4.52-8.4-10.21-7.92-16.04.49-5.81,4.12-10.34,10.52-13.1,5.63-2.43,13.04-3.34,21.42-2.64Z"/>
        <path class="cls-1" d="M41.39,552.77c1.86.89,3.57,1.8,5.14,2.73,5.3,3.16,8.92,6.61,11.01,10.45,2.72,5.02,2.67,10.56-.15,16.48-.37.77-.76,1.5-1.18,2.21-2.87,4.81-6.99,8.14-12.02,9.69-6.2,1.92-13.58.98-21.33-2.72-7.88-3.76-14.31-9.41-18.11-15.9-3.94-6.73-4.6-13.59-1.87-19.3,2.72-5.69,8.14-8.88,15.68-9.22,6.67-.3,14.57,1.63,22.84,5.58Z"/>
      </g>
      <g>
        <path class="cls-2" d="M737.98,735.7c-3.67-.11-7.36-1.65-11.27-4.71-2.55-2-4.87-4.35-6.89-6.98-4.64-6.04-10.86-10.63-17.99-13.3-3.11-1.16-6.04-2.69-8.7-4.54-.26-.18-.52-.37-.77-.55-3.63-2.68-5.94-5.58-7.04-8.84-2.02-5.96.4-13.57,5.65-17.71,4.69-3.7,10.43-4.34,15.99-4.95.75-.08,1.53-.17,2.28-.26,5.69-.7,11.38-2.01,16.93-3.91.7-.24,1.42-.49,2.11-.74,2.66-.95,5.41-1.93,8.24-2.39l.11-.02c3.45-.54,6.92.32,9.77,2.42,1.43,1.05,2.6,2.34,3.48,3.81.88,1.46,1.46,3.09,1.71,4.82v.11c.41,2.84.28,5.76.15,8.58-.03.73-.07,1.49-.09,2.24-.19,5.86.23,11.69,1.23,17.33.13.74.28,1.51.42,2.25,1.04,5.49,2.11,11.17-.04,16.74-2.41,6.23-8.98,10.78-15.27,10.6Z"/>
        <path class="cls-2" d="M784.2,706.68c-4.5,2.34-8.84,3.04-12.54,2.03-1.47-.4-2.82-1.06-4.02-1.95-1.62-1.2-2.98-2.83-4.02-4.83-1.79-3.45-1.93-6.73-.42-9.76,1.5-3,4.53-5.64,9.26-8.1,4.79-2.49,9.4-3.78,13.34-3.74,4.47.05,7.75,1.83,9.47,5.15,1.73,3.33,1.47,7.4-.72,11.46-2.11,3.9-5.78,7.36-10.35,9.73Z"/>
        <path class="cls-2" d="M782.17,672.43c-3.68,4.11-7.81,6.5-11.96,6.89-3.37.32-6.63-.63-9.52-2.77-.43-.31-.84-.65-1.25-1.02-3.14-2.8-4.54-6.07-4.17-9.72.37-3.62,2.43-7.48,6.3-11.81,1.96-2.19,3.99-4.07,6.04-5.57s4.1-2.65,6.11-3.39c4.55-1.67,8.55-1.12,11.57,1.58,3.03,2.71,4.33,6.93,3.67,11.89-.64,4.78-3.05,9.72-6.79,13.9Z"/>
        <path class="cls-2" d="M724.55,648.67c-.96,5.24-2.6,8.91-5.03,11.22-2.45,2.34-5.63,3.17-9.45,2.47-2.22-.41-4.18-1.23-5.8-2.43-1.2-.89-2.23-1.99-3.04-3.27-2.05-3.24-2.65-7.59-1.74-12.58.93-5.06,3.15-9.59,6.27-12.75,3.24-3.29,7.05-4.73,10.74-4.05,3.68.68,6.35,3.28,7.71,7.54,1.2,3.75,1.32,8.54.34,13.85Z"/>
        <path class="cls-2" d="M756.48,650.25c-.68,1.13-1.37,2.17-2.07,3.11-2.35,3.19-4.78,5.28-7.37,6.37-3.38,1.42-6.91,1.04-10.52-1.13-.47-.28-.91-.58-1.34-.89-2.89-2.14-4.76-4.97-5.44-8.29-.84-4.08.23-8.73,3.08-13.46,2.9-4.8,6.91-8.55,11.3-10.57,4.55-2.09,8.97-2.08,12.45.02,3.46,2.09,5.16,5.76,4.9,10.6-.23,4.28-1.96,9.2-5,14.24Z"/>
      </g>
      <g>
        <path class="cls-7" d="M1307.52,190.76c-3.61.48-7.47-.43-11.79-2.8-2.82-1.55-5.46-3.47-7.87-5.73-5.51-5.16-12.34-8.67-19.75-10.13-3.24-.64-6.35-1.66-9.25-3.05-.28-.14-.56-.27-.84-.41-3.98-2.04-6.71-4.51-8.32-7.52-2.94-5.51-1.79-13.35,2.69-18.24,4-4.37,9.52-5.92,14.86-7.42.72-.2,1.47-.41,2.19-.62,5.46-1.6,10.82-3.8,15.95-6.55.65-.35,1.31-.71,1.95-1.07,2.45-1.35,4.99-2.75,7.69-3.66l.1-.03c3.29-1.09,6.83-.8,9.95.8,1.56.8,2.92,1.88,4.01,3.17,1.09,1.29,1.93,2.79,2.45,4.44l.03.1c.84,2.72,1.18,5.6,1.51,8.38.09.72.18,1.47.27,2.2.76,5.76,2.1,11.41,3.99,16.77.25.71.52,1.44.77,2.14,1.9,5.21,3.87,10.6,2.65,16.4-1.36,6.49-7.06,12-13.25,12.83Z"/>
        <path class="cls-7" d="M1348.11,154.92c-4.03,3.01-8.16,4.39-11.95,4-1.5-.15-2.93-.58-4.25-1.26-1.78-.91-3.37-2.29-4.71-4.08-2.31-3.09-2.97-6.28-1.98-9.49.99-3.17,3.52-6.25,7.76-9.42,4.29-3.21,8.6-5.21,12.46-5.8,4.39-.67,7.88.55,10.1,3.52,2.23,2.98,2.63,7.01,1.14,11.33-1.44,4.16-4.48,8.13-8.57,11.19Z"/>
        <path class="cls-7" d="M1340.62,121.72c-2.94,4.62-6.6,7.62-10.6,8.67-3.24.86-6.59.45-9.76-1.18-.47-.24-.93-.5-1.38-.79-3.52-2.24-5.42-5.22-5.64-8.85-.22-3.6,1.18-7.71,4.27-12.57,1.57-2.46,3.26-4.62,5.01-6.43s3.59-3.25,5.44-4.3c4.19-2.36,8.19-2.47,11.58-.31,3.4,2.16,5.35,6.09,5.5,11.05.14,4.79-1.42,10.01-4.41,14.7Z"/>
        <path class="cls-7" d="M1280.38,107.72c-.1,5.29-1.12,9.14-3.12,11.8-2.02,2.68-5,4-8.86,3.93-2.24-.04-4.29-.53-6.07-1.45-1.32-.68-2.5-1.59-3.5-2.72-2.53-2.84-3.82-7.01-3.73-12.04.09-5.1,1.55-9.9,4.08-13.49,2.64-3.74,6.15-5.76,9.87-5.69,3.71.07,6.74,2.2,8.76,6.15,1.78,3.48,2.66,8.15,2.56,13.5Z"/>
        <path class="cls-7" d="M1311.9,104.13c-.49,1.22-1,2.34-1.53,3.38-1.79,3.5-3.83,5.94-6.19,7.43-3.08,1.94-6.6,2.13-10.48.58-.5-.2-.99-.42-1.45-.66-3.17-1.63-5.46-4.1-6.65-7.24-1.47-3.86-1.18-8.59.85-13.67,2.07-5.16,5.39-9.48,9.36-12.16,4.12-2.78,8.45-3.48,12.19-1.98,3.73,1.49,5.98,4.81,6.5,9.59.47,4.22-.44,9.32-2.61,14.75Z"/>
      </g>
    </g>
  </g>
</svg>