<?xml version="1.0" encoding="UTF-8"?>
<svg id="Layer_2" xmlns="http://www.w3.org/2000/svg" xmlns:xlink="http://www.w3.org/1999/xlink" viewBox="0 0 960 960">
  <defs>
    <style>
      .cls-1 {
        fill: #e4e5ee;
      }

      .cls-2 {
        opacity: .5;
      }
    </style>
  </defs>
  <image width="1921" height="1921" transform="translate(87.33 163.81) scale(.41)" xlink:href="../img-mission.png"/>
  <g class="cls-2">
    <g>
      <path class="cls-1" d="M622.02,188.71c-.95,3.24-3.18,6.14-6.81,8.9-2.37,1.8-4.99,3.31-7.81,4.49-6.44,2.71-11.97,7.16-16,12.87-1.76,2.49-3.8,4.73-6.06,6.66-.22.19-.44.37-.67.55-3.23,2.6-6.34,3.97-9.49,4.19-5.76.41-11.95-3.52-14.4-9.15-2.19-5.02-1.41-10.27-.67-15.35.1-.69.21-1.39.3-2.08.71-5.21.87-10.57.48-15.94-.05-.68-.11-1.37-.17-2.05-.22-2.58-.45-5.25-.19-7.87v-.1c.33-3.19,1.91-6.07,4.44-8.11,1.27-1.02,2.69-1.76,4.19-2.2,1.5-.44,3.09-.58,4.68-.39h.1c2.61.33,5.17,1.12,7.65,1.89.64.2,1.31.41,1.96.6,5.16,1.53,10.43,2.52,15.67,2.95.69.06,1.41.11,2.1.15,5.12.36,10.41.73,14.85,3.94,4.97,3.6,7.48,10.49,5.84,16.03Z"/>
      <path class="cls-1" d="M607.05,140.92c1.02,4.54.64,8.55-1.12,11.6-.7,1.21-1.59,2.26-2.67,3.12-1.44,1.16-3.2,1.99-5.22,2.44-3.48.79-6.42.14-8.76-1.91-2.31-2.03-3.95-5.33-5.03-10.11-1.09-4.83-1.16-9.23-.21-12.71,1.09-3.96,3.43-6.45,6.78-7.21,3.36-.76,6.91.42,10,3.31,2.97,2.78,5.18,6.85,6.22,11.46Z"/>
      <path class="cls-1" d="M576.17,134.73c2.79,4.22,3.94,8.45,3.33,12.22-.5,3.06-2.1,5.74-4.67,7.8-.38.3-.78.59-1.19.87-3.22,2.13-6.45,2.61-9.6,1.43-3.13-1.17-6.07-3.9-9.01-8.34-1.49-2.25-2.68-4.49-3.54-6.66-.86-2.17-1.4-4.26-1.58-6.21-.42-4.43,1-7.85,4.1-9.9,3.11-2.06,7.16-2.23,11.41-.48,4.1,1.68,7.92,4.98,10.76,9.27Z"/>
      <path class="cls-1" d="M541.64,180.33c4.43,2.07,7.3,4.39,8.79,7.08,1.5,2.72,1.5,5.74-.02,8.96-.88,1.88-2.07,3.42-3.51,4.58-1.07.86-2.28,1.51-3.62,1.93-3.36,1.07-7.36.58-11.57-1.39-4.28-2-7.78-5.04-9.86-8.54-2.16-3.64-2.55-7.36-1.09-10.48,1.46-3.11,4.4-4.87,8.49-5.08,3.61-.19,7.88.82,12.37,2.93Z"/>
      <path class="cls-1" d="M550.49,152.36c.85.87,1.6,1.72,2.28,2.56,2.28,2.83,3.57,5.48,3.94,8.03.48,3.33-.69,6.38-3.46,9.07-.36.35-.73.67-1.11.98-2.57,2.07-5.53,3.06-8.62,2.89-3.82-.21-7.7-2.24-11.22-5.87-3.58-3.69-5.98-8.13-6.74-12.49-.79-4.53.24-8.45,2.92-11.04,2.67-2.59,6.31-3.24,10.55-1.88,3.74,1.2,7.71,3.88,11.47,7.76Z"/>
    </g>
  </g>
  <g class="cls-2">
    <g>
      <path class="cls-1" d="M781.33,314.48c-3.06,1.42-6.71,1.68-11.18.78-2.91-.59-5.78-1.56-8.53-2.88-6.29-3.04-13.29-4.24-20.23-3.49-3.03.33-6.06.28-9.01-.14-.29-.04-.57-.09-.85-.13-4.08-.7-7.17-2.13-9.42-4.34-4.12-4.05-5.26-11.29-2.66-16.85,2.32-4.96,6.77-7.86,11.07-10.65.58-.38,1.18-.77,1.76-1.15,4.38-2.92,8.51-6.34,12.27-10.18.48-.49.96-.99,1.43-1.48,1.79-1.87,3.64-3.81,5.78-5.35l.08-.06c2.61-1.87,5.8-2.59,9.01-2.04,1.6.28,3.1.85,4.42,1.69,1.32.84,2.47,1.93,3.39,3.25l.06.08c1.49,2.17,2.59,4.61,3.65,6.98.28.62.56,1.25.85,1.87,2.26,4.88,5.01,9.49,8.15,13.7.42.56.85,1.12,1.27,1.68,3.12,4.08,6.34,8.29,6.86,13.74.59,6.1-2.92,12.54-8.15,14.98Z"/>
      <path class="cls-1" d="M807.27,271.64c-2.73,3.77-5.99,6.13-9.44,6.83-1.37.28-2.75.3-4.1.06-1.82-.31-3.61-1.09-5.29-2.3-2.89-2.09-4.36-4.72-4.36-7.83,0-3.07,1.38-6.49,4.25-10.46,2.9-4.02,6.15-6.98,9.4-8.56,3.69-1.8,7.11-1.69,9.89.32,2.79,2.02,4.26,5.46,4.13,9.69-.12,4.07-1.71,8.42-4.48,12.25Z"/>
      <path class="cls-1" d="M791.49,244.39c-1.32,4.89-3.73,8.55-6.96,10.58-2.63,1.65-5.69,2.22-8.94,1.66-.48-.08-.96-.19-1.44-.32-3.73-1.01-6.23-3.11-7.42-6.25-1.19-3.12-1.09-7.13.3-12.28.7-2.61,1.6-4.98,2.65-7.06,1.05-2.08,2.27-3.86,3.62-5.29,3.05-3.24,6.55-4.44,10.14-3.47,3.6.97,6.41,3.9,7.91,8.24,1.45,4.19,1.5,9.23.16,14.2Z"/>
      <path class="cls-1" d="M734.45,248.65c1.37,4.69,1.54,8.38.5,11.28-1.05,2.93-3.31,4.92-6.73,5.92-1.99.58-3.93.71-5.75.4-1.35-.23-2.64-.71-3.84-1.43-3.02-1.81-5.31-5.13-6.61-9.6-1.33-4.53-1.37-9.16-.12-13.04,1.3-4.03,3.84-6.78,7.14-7.75,3.3-.96,6.56.08,9.43,3.01,2.53,2.58,4.6,6.46,5.99,11.22Z"/>
      <path class="cls-1" d="M761.28,236.79c-.09,1.21-.23,2.34-.41,3.4-.62,3.58-1.75,6.3-3.42,8.26-2.18,2.56-5.24,3.71-9.09,3.41-.5-.04-.99-.1-1.47-.18-3.25-.56-5.95-2.12-7.87-4.56-2.37-3-3.41-7.26-3.02-12.3.4-5.13,2.14-9.86,4.91-13.32,2.87-3.59,6.5-5.41,10.21-5.12,3.7.29,6.6,2.59,8.39,6.67,1.58,3.6,2.19,8.35,1.77,13.74Z"/>
    </g>
  </g>
</svg>